# xmcd
# 
# Track frame offsets:
#     150
#     17930
#     35102
#     52354
#     66184
#     86903
#     102021
#     119744
#     135805
#     151527
#     166823
#     182688
# 
# Disc length: 2670
# 
# Revision: 1
# Processed by: cddbd v1.5.2PL0 Copyright (c) Steve Scherf et al.
# Submitted via: fre:ac v1.0.27
# 
DISCID=9f0a6c0c
DTITLE=Suvi Teräsniska - Särkyneiden sydänten tie
DYEAR=2008
DGENRE=Suomi iskelmä
TTITLE0=Hento kuiskaus
TTITLE1=Sanoja vaan
TTITLE2=Särkyneiden sydänten tie
TTITLE3=Kylmät enkelit
TTITLE4=Kaunis muisto kadonneesta
TTITLE5=Valkeat yöt
TTITLE6=Matkaseura
TTITLE7=Valkoinen valhe
TTITLE8=Haavoitettu
TTITLE9=Onko rikos rakastua
TTITLE10=Palapeli
TTITLE11=Kiertolainen
EXTD=
EXTT0=
EXTT1=
EXTT2=
EXTT3=
EXTT4=
EXTT5=
EXTT6=
EXTT7=
EXTT8=
EXTT9=
EXTT10=
EXTT11=
PLAYORDER=
